<svg xmlns="http://www.w3.org/2000/svg" version="1.1" width="7.7in" height="5.8in" viewBox = " 0 0 693 522" >
<!-- Front--> 
<g transform="translate(22.499999999999996, 22.499999999999996) " > 
<polygon style="stroke:#000000; fill:none; stroke-width:0.09" points="0, 0 30.375000000000004, 0 30.375000000000004, 16.875 60.75000000000001, 16.875 60.75000000000001, 0 83.25, 0 83.25, 16.875 113.62500000000001, 16.875 113.62500000000001, 0 144, 0 144, 23.400000000000002 127.125, 23.400000000000002 127.125, 46.800000000000004 144, 46.800000000000004 144, 70.2 127.125, 70.2 127.125, 93.60000000000001 144, 93.60000000000001 144, 117 113.62500000000001, 117 113.62500000000001, 100.125 83.25, 100.125 83.25, 117 60.75000000000001, 117 60.75000000000001, 100.125 30.375000000000004, 100.125 30.375000000000004, 117 0, 117.00000000000001 0, 93.60000000000001 16.875, 93.60000000000001 16.875, 70.2 0, 70.2 0, 46.800000000000004 16.875, 46.800000000000004 16.875, 23.400000000000002 0, 23.400000000000002 "/> 
 <circle cx="72" cy="58.5" r="13.95" style="stroke:#000000;stroke-width:0.09;fill:none" /> 
</g>
<!-- Back--> 
<g transform="translate(166.5, 22.499999999999996) " > 
<polygon style="stroke:#000000; fill:none; stroke-width:0.09" points="0, 0 30.375000000000004, 0 30.375000000000004, 16.875 60.75000000000001, 16.875 60.75000000000001, 0 83.25, 0 83.25, 16.875 113.62500000000001, 16.875 113.62500000000001, 0 144, 0 144, 23.400000000000002 127.125, 23.400000000000002 127.125, 46.800000000000004 144, 46.800000000000004 144, 70.2 127.125, 70.2 127.125, 93.60000000000001 144, 93.60000000000001 144, 117 113.62500000000001, 117 113.62500000000001, 100.125 83.25, 100.125 83.25, 117 60.75000000000001, 117 60.75000000000001, 100.125 30.375000000000004, 100.125 30.375000000000004, 117 0, 117.00000000000001 0, 93.60000000000001 16.875, 93.60000000000001 16.875, 70.2 0, 70.2 0, 46.800000000000004 16.875, 46.800000000000004 16.875, 23.400000000000002 0, 23.400000000000002 "/> 
</g>
<!-- Left--> 
<g transform="translate(310.5, 22.499999999999996) " > 
<polygon style="stroke:#000000; fill:none; stroke-width:0.09" points="16.875, 0 28.125, 0 28.125, 16.875 56.25, 16.875 56.25, 0 78.75, 0 78.75, 16.875 101.25, 16.875 101.25, 0 123.75, 0 123.75, 16.875 146.25, 16.875 146.25, 0 168.75, 0 168.75, 16.875 191.25, 16.875 191.25, 0 213.75, 0 213.75, 16.875 236.25, 16.875 236.25, 0 258.75, 0 258.75, 16.875 281.25, 16.875 281.25, 0 303.75, 0 303.75, 16.875 331.875, 16.875 331.875, 0 343.125, 0 343.125, 23.400000000000002 360, 23.400000000000002 360, 46.800000000000004 343.125, 46.800000000000004 343.125, 70.2 360, 70.2 360, 93.60000000000001 343.125, 93.60000000000001 343.125, 117 331.875, 117 331.875, 100.125 303.75, 100.125 303.75, 117 281.25, 117 281.25, 100.125 258.75, 100.125 258.75, 117 236.25, 117 236.25, 100.125 213.75, 100.125 213.75, 117 191.25, 117 191.25, 100.125 168.75, 100.125 168.75, 117 146.25, 117 146.25, 100.125 123.75, 100.125 123.75, 117 101.25, 117 101.25, 100.125 78.75, 100.125 78.75, 117 56.25, 117 56.25, 100.125 28.125, 100.125 28.125, 117 16.875, 117.00000000000001 16.875, 93.60000000000001 0, 93.60000000000001 0, 70.2 16.875, 70.2 16.875, 46.800000000000004 0, 46.800000000000004 0, 23.400000000000002 16.875, 23.400000000000002 "/> 
</g>
<!-- Right--> 
<g transform="translate(310.5, 139.5) " > 
<polygon style="stroke:#000000; fill:none; stroke-width:0.09" points="16.875, 0 28.125, 0 28.125, 16.875 56.25, 16.875 56.25, 0 78.75, 0 78.75, 16.875 101.25, 16.875 101.25, 0 123.75, 0 123.75, 16.875 146.25, 16.875 146.25, 0 168.75, 0 168.75, 16.875 191.25, 16.875 191.25, 0 213.75, 0 213.75, 16.875 236.25, 16.875 236.25, 0 258.75, 0 258.75, 16.875 281.25, 16.875 281.25, 0 303.75, 0 303.75, 16.875 331.875, 16.875 331.875, 0 343.125, 0 343.125, 23.400000000000002 360, 23.400000000000002 360, 46.800000000000004 343.125, 46.800000000000004 343.125, 70.2 360, 70.2 360, 93.60000000000001 343.125, 93.60000000000001 343.125, 117 331.875, 117 331.875, 100.125 303.75, 100.125 303.75, 117 281.25, 117 281.25, 100.125 258.75, 100.125 258.75, 117 236.25, 117 236.25, 100.125 213.75, 100.125 213.75, 117 191.25, 117 191.25, 100.125 168.75, 100.125 168.75, 117 146.25, 117 146.25, 100.125 123.75, 100.125 123.75, 117 101.25, 117 101.25, 100.125 78.75, 100.125 78.75, 117 56.25, 117 56.25, 100.125 28.125, 100.125 28.125, 117 16.875, 117.00000000000001 16.875, 93.60000000000001 0, 93.60000000000001 0, 70.2 16.875, 70.2 16.875, 46.800000000000004 0, 46.800000000000004 0, 23.400000000000002 16.875, 23.400000000000002 "/> 
</g>
<!-- Top--> 
<g transform="translate(22.499999999999996, 139.5) " > 
<polygon style="stroke:#000000; fill:none; stroke-width:0.09" points="16.875, 16.875 30.375000000000004, 16.875 30.375000000000004, 0 60.75000000000001, 0 60.75000000000001, 16.875 83.25, 16.875 83.25, 0 113.62500000000001, 0 113.62500000000001, 16.875 127.125, 16.875 127.125, 28.125 144, 28.125 144, 56.25 127.125, 56.25 127.125, 78.75 144, 78.75 144, 101.25 127.125, 101.25 127.125, 123.75 144, 123.75 144, 146.25 127.125, 146.25 127.125, 168.75 144, 168.75 144, 191.25 127.125, 191.25 127.125, 213.75 144, 213.75 144, 236.25 127.125, 236.25 127.125, 258.75 144, 258.75 144, 281.25 127.125, 281.25 127.125, 303.75 144, 303.75 144, 331.875 127.125, 331.875 127.125, 343.125 113.62500000000001, 343.125 113.62500000000001, 360 83.25, 360 83.25, 343.125 60.75000000000001, 343.125 60.75000000000001, 360 30.375000000000004, 360 30.375000000000004, 343.125 16.875, 343.125 16.875, 331.875 0, 331.875 0, 303.75 16.875, 303.75 16.875, 281.25 0, 281.25 0, 258.75 16.875, 258.75 16.875, 236.25 0, 236.25 0, 213.75 16.875, 213.75 16.875, 191.25 0, 191.25 0, 168.75 16.875, 168.75 16.875, 146.25 0, 146.25 0, 123.75 16.875, 123.75 16.875, 101.25 0, 101.25 0, 78.75 16.875, 78.75 16.875, 56.25 0, 56.25 0, 28.125 16.875, 28.125 "/> 
</g>
<!-- Bottom--> 
<g transform="translate(166.5, 139.5) " > 
<polygon style="stroke:#000000; fill:none; stroke-width:0.09" points="16.875, 16.875 30.375000000000004, 16.875 30.375000000000004, 0 60.75000000000001, 0 60.75000000000001, 16.875 83.25, 16.875 83.25, 0 113.62500000000001, 0 113.62500000000001, 16.875 127.125, 16.875 127.125, 28.125 144, 28.125 144, 56.25 127.125, 56.25 127.125, 78.75 144, 78.75 144, 101.25 127.125, 101.25 127.125, 123.75 144, 123.75 144, 146.25 127.125, 146.25 127.125, 168.75 144, 168.75 144, 191.25 127.125, 191.25 127.125, 213.75 144, 213.75 144, 236.25 127.125, 236.25 127.125, 258.75 144, 258.75 144, 281.25 127.125, 281.25 127.125, 303.75 144, 303.75 144, 331.875 127.125, 331.875 127.125, 343.125 113.62500000000001, 343.125 113.62500000000001, 360 83.25, 360 83.25, 343.125 60.75000000000001, 343.125 60.75000000000001, 360 30.375000000000004, 360 30.375000000000004, 343.125 16.875, 343.125 16.875, 331.875 0, 331.875 0, 303.75 16.875, 303.75 16.875, 281.25 0, 281.25 0, 258.75 16.875, 258.75 16.875, 236.25 0, 236.25 0, 213.75 16.875, 213.75 16.875, 191.25 0, 191.25 0, 168.75 16.875, 168.75 16.875, 146.25 0, 146.25 0, 123.75 16.875, 123.75 16.875, 101.25 0, 101.25 0, 78.75 16.875, 78.75 16.875, 56.25 0, 56.25 0, 28.125 16.875, 28.125 "/> 
</g></svg>